<svg id="Layer_1" data-name="Layer 1" xmlns="http://www.w3.org/2000/svg" viewBox="0 0 65 65"><defs><style>.cls-1{fill:#fff;}</style></defs><rect class="cls-1" x="5" y="5" width="55" height="55" rx="7.41"/><path d="M56.76,17.8a2,2,0,0,1-.57,1.38L27,48.33a1.68,1.68,0,0,1-.29.24l-.07.08-.68.68a1.47,1.47,0,0,1-2.07,0L8.67,34.06a1.45,1.45,0,0,1,0-2.07l.68-.68c.57-.57,8-4,9.59-1.41l6,15,17.7-27.94c1.65-2.17,11.54-2.17,13.5-.51A1.76,1.76,0,0,1,56.76,17.8Z"/><path d="M49.92,15.24c2.72,0,5.36.42,6.27,1.19a1.76,1.76,0,0,1,.57,1.37,2,2,0,0,1-.57,1.38L27,48.33a1.68,1.68,0,0,1-.29.24l-.07.08-.68.68a1.46,1.46,0,0,1-2.07,0L8.67,34.06a1.45,1.45,0,0,1,0-2.07l.68-.68a16.82,16.82,0,0,1,7.3-2.38,2.5,2.5,0,0,1,2.29,1l6,15,17.7-27.94c.88-1.16,4.11-1.7,7.23-1.7m0-1.34v0a23.27,23.27,0,0,0-4.74.45,5.85,5.85,0,0,0-3.56,1.78l0,.05,0,.05L25.25,42,20.19,29.4l0-.1-.06-.09a3.67,3.67,0,0,0-3.44-1.62,15.28,15.28,0,0,0-5,1.12A12.82,12.82,0,0,0,8.4,30.36L7.72,31a2.81,2.81,0,0,0,0,4L23,50.28a2.81,2.81,0,0,0,4,0l.68-.68v0a2.52,2.52,0,0,0,.35-.3L57.14,20.13a3.27,3.27,0,0,0,1-2.33,3.12,3.12,0,0,0-1-2.4A6.59,6.59,0,0,0,54,14.23a22.65,22.65,0,0,0-4-.33Z"/></svg>