<svg id="Layer_1" data-name="Layer 1" xmlns="http://www.w3.org/2000/svg" viewBox="0 0 65 65"><defs><style>.cls-1{fill:#fff;}</style></defs><rect class="cls-1" x="5" y="5" width="55" height="55" rx="7.41"/><path d="M53.25,43.81v5.32a4.13,4.13,0,0,1-4.12,4.12H43.81v4h5.32a8.16,8.16,0,0,0,8.15-8.15V43.81ZM15.87,53.25a4.13,4.13,0,0,1-4.12-4.12V43.81h-4v5.32a8.16,8.16,0,0,0,8.15,8.15h5.32v-4ZM49.13,7.72H43.81v4h5.32a4.13,4.13,0,0,1,4.12,4.12v5.32h4V15.87A8.16,8.16,0,0,0,49.13,7.72ZM7.72,15.87v5.32h4V15.87a4.13,4.13,0,0,1,4.12-4.12h5.32v-4H15.87A8.16,8.16,0,0,0,7.72,15.87Z"/><rect x="7.07" y="30.48" width="50.86" height="4.05" rx="1.98"/><rect x="16.19" y="16.11" width="10" height="10" rx="1.83"/><rect x="38.81" y="39.94" width="10" height="10" rx="1.83"/><rect x="16.19" y="39.94" width="10" height="10" rx="1.83"/><rect x="38.81" y="16.11" width="10" height="10" rx="1.83"/></svg>